<svg width="216" height="46" viewBox="0 0 216 46" fill="none" xmlns="http://www.w3.org/2000/svg">
<g clip-path="url(#clip0)">
<path d="M208.2 15.4788L205.762 27.3973C205.517 28.6001 205.659 28.8218 206.814 28.8218H211.884L210.501 35.5877H203.807C199.02 35.5877 196.582 32.3717 197.599 27.3973L200.037 15.4788H196.954L198.338 8.71293H201.428L202.561 3.17285H210.722L209.588 8.71293H216.005L214.614 15.4788H208.2Z" fill="#C57D19"/>
<path d="M195.117 12.097L193.734 18.8577L190.3 35.585H182.15L185.583 18.8577H181.514L182.9 12.0944L195.117 12.097ZM189.064 7.71127C187.651 6.08034 188.083 3.28227 190.023 1.4653C191.963 -0.351661 194.683 -0.499464 196.103 1.13402C197.523 2.7675 197.084 5.56558 195.144 7.38254C193.204 9.1995 190.479 9.34731 189.064 7.71127Z" fill="#C57D19"/>
<path d="M177.624 31.5995C177.173 33.8038 175.498 35.5902 172.964 35.5902C170.431 35.5902 169.489 33.8063 169.94 31.5995C170.391 29.3926 172.067 27.6113 174.6 27.6113C177.134 27.6113 178.068 29.3926 177.624 31.5995Z" fill="#C57D19"/>
<path d="M65.8417 27.2612H70.1617L71.7169 19.8528H67.3969L65.8417 27.2612ZM53.9617 42.5138L60.3121 12.4443H66.3601L66.9649 14.8412H67.1809C67.5553 14.2892 67.9873 13.8243 68.4769 13.4467C69.6577 12.4879 71.0113 12.0085 72.5377 12.0085H75.9937C77.4625 12.0085 78.7009 12.6477 79.7089 13.926C80.7457 15.2043 81.0913 16.5989 80.7457 18.1096L78.3265 29.4401C77.9521 31.1833 77.1601 32.5633 75.9505 33.5801C74.7409 34.597 73.2721 35.1054 71.5441 35.1054H64.2001L62.6017 42.5138H53.9617Z" fill="#C57D19"/>
<path d="M91.1501 27.697H95.4701L97.1117 19.8528H92.7917L91.1501 27.697ZM82.1213 29.4401L84.6269 17.6738C85.0013 15.9307 85.7933 14.5507 87.0029 13.5338C88.2125 12.517 89.6813 12.0085 91.4093 12.0085H101.389C102.857 12.0085 104.096 12.6477 105.104 13.926C106.141 15.2043 106.486 16.5989 106.141 18.1096L103.635 29.8759C103.261 31.6191 102.469 32.9991 101.259 34.0159C100.049 35.0328 98.5805 35.5412 96.8525 35.5412H86.8733C85.4045 35.5412 84.1517 34.902 83.1149 33.6237C82.1069 32.3454 81.7757 30.9509 82.1213 29.4401Z" fill="#C57D19"/>
<path d="M106.965 35.1054L111.717 12.4443H117.765L118.326 14.8412H118.542C118.917 14.2892 119.349 13.8243 119.838 13.4467C121.019 12.4879 122.373 12.0085 123.899 12.0085H125.411C126.88 12.0085 128.09 12.4879 129.04 13.4467C129.472 13.8824 129.789 14.3473 129.99 14.8412H130.206C130.581 14.2892 131.013 13.8243 131.502 13.4467C132.683 12.4879 134.037 12.0085 135.563 12.0085H138.587C140.085 12.0085 141.338 12.6477 142.346 13.926C143.354 15.1753 143.699 16.5698 143.382 18.1096L139.797 35.1054H131.157L134.354 19.8528H130.897L127.701 35.1054H119.061L122.257 19.8528H118.801L115.605 35.1054H106.965Z" fill="#C57D19"/>
<path d="M154.241 27.697H158.561L160.202 19.8528H155.882L154.241 27.697ZM145.212 29.4401L147.717 17.6738C148.092 15.9307 148.884 14.5507 150.093 13.5338C151.303 12.517 152.772 12.0085 154.5 12.0085H164.479C165.948 12.0085 167.186 12.6477 168.194 13.926C169.231 15.2043 169.577 16.5989 169.231 18.1096L166.725 29.8759C166.351 31.6191 165.559 32.9991 164.349 34.0159C163.14 35.0328 161.671 35.5412 159.943 35.5412H149.964C148.495 35.5412 147.242 34.902 146.205 33.6237C145.197 32.3454 144.866 30.9509 145.212 29.4401Z" fill="#C57D19"/>
<path d="M37.2202 3.44531H47.5658L40.86 36.7877H30.512L37.2202 3.44531Z" fill="#C57D19"/>
<path d="M22.0402 3.44531H32.3859L23.7792 46H13.4336L22.0402 3.44531Z" fill="#C57D19"/>
<path d="M6.70823 3.44531H17.0539L10.3481 36.7877H0L6.70823 3.44531Z" fill="#C57D19"/>
</g>
<defs>
<clipPath id="clip0">
<rect width="216" height="46" fill="white"/>
</clipPath>
</defs>
</svg>
